<?xml version="1.0" encoding="UTF-8" standalone="no"?>
<!-- Created with Inkscape (http://www.inkscape.org/) -->

<svg
   xmlns:dc="http://purl.org/dc/elements/1.1/"
   xmlns:cc="http://creativecommons.org/ns#"
   xmlns:rdf="http://www.w3.org/1999/02/22-rdf-syntax-ns#"
   xmlns:svg="http://www.w3.org/2000/svg"
   xmlns="http://www.w3.org/2000/svg"
   xmlns:sodipodi="http://sodipodi.sourceforge.net/DTD/sodipodi-0.dtd"
   xmlns:inkscape="http://www.inkscape.org/namespaces/inkscape"
   width="53.86161"
   height="50.29018"
   id="svg2"
   version="1.1"
   inkscape:version="0.48.4 r9939"
   sodipodi:docname="New document 1">
  <defs
     id="defs4" />
  <sodipodi:namedview
     id="base"
     pagecolor="#ffffff"
     bordercolor="#666666"
     borderopacity="1.0"
     inkscape:pageopacity="0.0"
     inkscape:pageshadow="2"
     inkscape:zoom="5.6"
     inkscape:cx="43.006261"
     inkscape:cy="2.946973"
     inkscape:document-units="px"
     inkscape:current-layer="layer1"
     showgrid="false"
     fit-margin-top="0"
     fit-margin-left="0"
     fit-margin-right="0"
     fit-margin-bottom="0"
     inkscape:window-width="1920"
     inkscape:window-height="1025"
     inkscape:window-x="0"
     inkscape:window-y="27"
     inkscape:window-maximized="1" />
  <metadata
     id="metadata7">
    <rdf:RDF>
      <cc:Work
         rdf:about="">
        <dc:format>image/svg+xml</dc:format>
        <dc:type
           rdf:resource="http://purl.org/dc/dcmitype/StillImage" />
        <dc:title></dc:title>
      </cc:Work>
    </rdf:RDF>
  </metadata>
  <g
     inkscape:label="Layer 1"
     inkscape:groupmode="layer"
     id="layer1"
     transform="translate(-90.9375,-137.5625)">
    <path
       sodipodi:type="arc"
       style="fill:#ff0000;fill-rule:evenodd;stroke:#000000;stroke-width:1px;stroke-linecap:butt;stroke-linejoin:miter;stroke-opacity:1"
       id="path2985"
       sodipodi:cx="104.28571"
       sodipodi:cy="150.93361"
       sodipodi:rx="12.857142"
       sodipodi:ry="12.857142"
       d="m 117.14286,150.93361 c 0,7.1008 -5.75634,12.85714 -12.85715,12.85714 -7.100801,0 -12.857139,-5.75634 -12.857139,-12.85714 0,-7.1008 5.756338,-12.85714 12.857139,-12.85714 7.10081,0 12.85715,5.75634 12.85715,12.85714 z" />
    <path
       transform="translate(13.57143,23.57143)"
       sodipodi:type="arc"
       style="fill:#00ff00;fill-rule:evenodd;stroke:#000000;stroke-width:1px;stroke-linecap:butt;stroke-linejoin:miter;stroke-opacity:1"
       id="path2985-7"
       sodipodi:cx="104.28571"
       sodipodi:cy="150.93361"
       sodipodi:rx="12.857142"
       sodipodi:ry="12.857142"
       d="m 117.14286,150.93361 c 0,7.1008 -5.75634,12.85714 -12.85715,12.85714 -7.100801,0 -12.857139,-5.75634 -12.857139,-12.85714 0,-7.1008 5.756338,-12.85714 12.857139,-12.85714 7.10081,0 12.85715,5.75634 12.85715,12.85714 z" />
    <path
       transform="translate(27.142859,1.2601579e-6)"
       sodipodi:type="arc"
       style="fill:#0000ff;fill-rule:evenodd;stroke:#000000;stroke-width:1px;stroke-linecap:butt;stroke-linejoin:miter;stroke-opacity:1"
       id="path2985-7-1"
       sodipodi:cx="104.28571"
       sodipodi:cy="150.93361"
       sodipodi:rx="12.857142"
       sodipodi:ry="12.857142"
       d="m 117.14286,150.93361 c 0,7.1008 -5.75634,12.85714 -12.85715,12.85714 -7.100801,0 -12.857139,-5.75634 -12.857139,-12.85714 0,-7.1008 5.756338,-12.85714 12.857139,-12.85714 7.10081,0 12.85715,5.75634 12.85715,12.85714 z" />
  </g>
</svg>
